<svg xmlns="http://www.w3.org/2000/svg" width="38" height="30" fill="none" viewBox="0 0 38 30">
    <path fill="#4A90E2" d="M1.874 16.867h29.21l-9.92 9.92c-.177.172-.318.38-.415.607-.097.229-.147.474-.149.722-.001.247.047.493.141.722.094.23.233.438.408.613.176.175.384.314.613.408.23.095.475.142.723.141.248-.001.493-.052.721-.149.228-.097.435-.238.608-.415l13.119-13.118c.351-.352.549-.829.549-1.325 0-.497-.198-.974-.55-1.325L23.815.549c-.174-.174-.38-.313-.608-.407C22.98.048 22.736 0 22.49 0c-.37 0-.733.11-1.041.316-.308.206-.548.499-.69.84-.142.343-.179.72-.107 1.084.073.363.25.697.513.959l9.92 9.92H1.873c-.497 0-.974.197-1.325.548-.352.352-.549.829-.549 1.326 0 .497.197.973.549 1.325.351.351.828.549 1.325.549z"/>
</svg>
