<svg xmlns="http://www.w3.org/2000/svg" width="60" height="60" fill="none" viewBox="0 0 60 60">
    <path stroke="#4A90E2" stroke-dasharray="5 5" stroke-linecap="round" stroke-linejoin="round" stroke-width="2" d="M38.8 26.7h-9.9c-1.215 0-2.2.985-2.2 2.2v9.9c0 1.215.985 2.2 2.2 2.2h9.9c1.215 0 2.2-.985 2.2-2.2v-9.9c0-1.215-.985-2.2-2.2-2.2z"/>
    <path stroke="#4A90E2" stroke-dasharray="5 5" stroke-linecap="round" stroke-linejoin="round" stroke-width="2" d="M22.3 33.3h-1.1c-.584 0-1.143-.232-1.556-.644-.412-.413-.644-.973-.644-1.556v-9.9c0-.584.232-1.143.644-1.556.413-.412.973-.644 1.556-.644h9.9c.583 0 1.143.232 1.556.644.412.413.644.973.644 1.556v1.1" opacity=".3"/>
    <circle cx="30" cy="30" r="29" stroke="#4A90E2" stroke-width="2"/>
</svg>
