<svg xmlns="http://www.w3.org/2000/svg" width="28" height="12" fill="none" viewBox="0 0 28 12">
    <path fill="#4a90e2" d="M15.995 5.911c0 1.091-.897 1.968-1.998 1.968s-1.998-.883-1.998-1.968c0-1.476-.5-1.968-1.998-1.968s-1.998.492-1.998 1.968c0 1.091-.896 1.968-1.997 1.968-1.102 0-1.998-.883-1.998-1.968 0-1.09.896-1.968 1.998-1.968 1.498 0 1.997-.492 1.997-1.969 0-1.09.897-1.968 1.998-1.968S12 .889 12 1.974c0 1.477.5 1.969 1.998 1.969 1.107 0 1.998.877 1.998 1.968zM1.998 11.822c1.103 0 1.998-.881 1.998-1.968S3.1 7.885 1.998 7.885C.894 7.885 0 8.767 0 9.854c0 1.087.894 1.968 1.998 1.968zM28 1.968c0 1.091-.897 1.969-1.998 1.969-1.498 0-1.998.492-1.998 1.968 0 1.091-.896 1.969-1.998 1.969-1.498 0-1.997.492-1.997 1.968 0 1.09-.897 1.968-1.998 1.968s-1.998-.883-1.998-1.968c0-1.091.896-1.968 1.998-1.968 1.498 0 1.998-.493 1.998-1.969 0-1.09.896-1.968 1.997-1.968 1.499 0 1.998-.492 1.998-1.969 0-1.09.897-1.968 1.998-1.968S28 .883 28 1.968z"/>
</svg>
