<svg xmlns="http://www.w3.org/2000/svg" width="60" height="60" fill="none" viewBox="0 0 60 60">
    <path fill="#4A90E2" d="M30.414 37.167c-.254 0-.498-.1-.678-.28-.18-.18-.28-.423-.28-.678 0-.254.1-.498.28-.677.18-.18.424-.28.678-.28.906 0 1.784-.322 2.476-.908.692-.585 1.154-1.397 1.304-2.292.15-.894-.022-1.812-.486-2.591-.463-.78-1.187-1.37-2.044-1.665-.857-.296-1.791-.278-2.637.05-.845.328-1.546.945-1.98 1.741-.433.797-.57 1.72-.386 2.609.184.887.676 1.681 1.39 2.24.2.157.33.387.36.64.03.252-.04.506-.197.706-.157.2-.387.33-.639.36-.252.03-.506-.04-.706-.198-1.07-.838-1.81-2.029-2.085-3.36-.276-1.332-.07-2.718.58-3.913.65-1.194 1.702-2.12 2.97-2.612 1.268-.492 2.669-.518 3.954-.075 1.286.444 2.372 1.328 3.067 2.497.695 1.17.953 2.547.728 3.888-.225 1.341-.918 2.56-1.956 3.438-1.038.878-2.353 1.36-3.713 1.36z"/>
    <path fill="#4A90E2" d="M39.037 21.837h-2.184l-.575-1.724c-.282-.656-.759-1.21-1.365-1.587-.607-.377-1.314-.559-2.027-.521h-4.944c-.713-.038-1.42.144-2.027.521-.607.377-1.083.93-1.365 1.587l-.575 1.724h-2.184c-1.27 0-2.489.506-3.387 1.404-.899.898-1.404 2.117-1.404 3.387v9.581c0 1.27.505 2.489 1.404 3.387.898.899 2.116 1.404 3.387 1.404h17.246c1.27 0 2.489-.505 3.387-1.404.898-.898 1.403-2.116 1.404-3.387v-9.581c0-1.27-.506-2.489-1.404-3.387-.898-.898-2.117-1.403-3.387-1.404zm2.874 14.372c-.002.762-.305 1.492-.844 2.03-.538.539-1.268.843-2.03.845H21.791c-.762-.003-1.492-.306-2.03-.845-.539-.538-.842-1.268-.845-2.03v-9.581c.003-.762.306-1.491.845-2.03.538-.539 1.268-.842 2.03-.844h9.916c.254 0 .498-.101.678-.281.18-.18.28-.423.28-.677 0-.255-.1-.498-.28-.678-.18-.18-.424-.28-.678-.28h-5.71l.373-1.122c.157-.27.39-.49.668-.63.28-.142.593-.199.904-.165h4.944c.31-.034.625.023.903.165.28.14.511.36.668.63l.795 2.386c.066.19.19.354.352.47.163.117.358.18.559.182h2.874c.762.002 1.492.305 2.03.844.539.539.842 1.268.844 2.03v9.581z"/>
    <circle cx="30" cy="30" r="29" stroke="#4A90E2" stroke-width="2"/>
</svg>
